<svg id="Lager_1-2" xmlns="http://www.w3.org/2000/svg" width="218.569" height="22.719" viewBox="0 0 218.569 22.719">
  <path id="Path_1282" data-name="Path 1282" d="M0,.52H6.4l5.212,8.458L16.816.52h6.4V22.362H17.2V9.813l-5.583,8.551h-.126L5.928,9.881V22.362H0Z" transform="translate(0 -0.081)" fill="#fff"/>
  <path id="Path_1283" data-name="Path 1283" d="M31.23,11.418v-.059A11.44,11.44,0,0,1,43.028,0c6.746,0,11.73,5.026,11.73,11.3v.059a11.44,11.44,0,0,1-11.8,11.359c-6.746,0-11.73-5.026-11.73-11.292Zm17.347,0v-.059A5.672,5.672,0,0,0,42.96,5.465,5.547,5.547,0,0,0,37.437,11.3v.059a5.666,5.666,0,0,0,5.583,5.895A5.594,5.594,0,0,0,48.577,11.418Z" transform="translate(-4.893)" fill="#fff"/>
  <path id="Path_1284" data-name="Path 1284" d="M62.86.52h8.425c7.8,0,12.329,4.495,12.329,10.794v.059c0,6.3-4.588,10.98-12.447,10.98h-8.3V.52ZM71.377,17C75,17,77.4,15,77.4,11.475v-.059c0-3.491-2.4-5.524-6.021-5.524H68.915V17Z" transform="translate(-9.85 -0.081)" fill="#fff"/>
  <path id="Path_1285" data-name="Path 1285" d="M91.168.52h17.566V5.673H97.156V8.978h10.482v4.773H97.156v3.466h11.73V22.37H91.16V.52Z" transform="translate(-14.284 -0.081)" fill="#fff"/>
  <path id="Path_1286" data-name="Path 1286" d="M115.848.52h10.331c3.34,0,5.65.877,7.118,2.37a6.762,6.762,0,0,1,1.931,5.085v.059a6.913,6.913,0,0,1-4.495,6.713l5.212,7.615h-6.991l-4.4-6.612h-2.656v6.612H115.84V.52ZM125.9,11c2.058,0,3.247-1,3.247-2.589V8.354c0-1.72-1.248-2.589-3.28-2.589H121.9v5.245h4Z" transform="translate(-18.151 -0.081)" fill="#fff"/>
  <path id="Path_1287" data-name="Path 1287" d="M142.45.52h5.65l8.99,11.545V.52h5.988V22.362h-5.3l-9.327-11.983V22.362h-5.988V.52Z" transform="translate(-22.321 -0.081)" fill="#fff"/>
  <path id="Path_1288" data-name="Path 1288" d="M169.42.52h6.772l4.959,13.822L186.109.52h6.645l-8.863,22h-5.616Z" transform="translate(-26.547 -0.081)" fill="#fff"/>
  <path id="Path_1289" data-name="Path 1289" d="M199.76.52h6.08V22.362h-6.08Z" transform="translate(-31.301 -0.081)" fill="#fff"/>
  <path id="Path_1290" data-name="Path 1290" d="M211.708.52h11.2c2.749,0,4.68.683,5.962,1.965a4.791,4.791,0,0,1,1.408,3.525v.059a5.048,5.048,0,0,1-3.373,4.866c2.656.877,4.335,2.37,4.335,5.338v.059c0,3.744-3.061,6.021-8.273,6.021H211.7V.52Zm9.706,8.7c1.838,0,2.867-.624,2.867-1.906V7.258c0-1.189-.936-1.872-2.749-1.872H217.6V9.223h3.8Zm.877,8.273c1.838,0,2.9-.717,2.9-2v-.059c0-1.189-.936-1.965-2.968-1.965H217.6V17.5h4.68Z" transform="translate(-33.171 -0.081)" fill="#fff"/>
  <path id="Path_1291" data-name="Path 1291" d="M238.168.52h17.566V5.673H244.156V8.978h10.482v4.773H244.156v3.466h11.73V22.37H238.16V.52Z" transform="translate(-37.317 -0.081)" fill="#fff"/>
</svg>
