<svg xmlns="http://www.w3.org/2000/svg" width="20.942" height="20.973" viewBox="0 0 20.942 20.973">
  <path id="noun-search-875357" d="M272.658,271.157l-3.908-3.873a9.445,9.445,0,0,0-.7-12.528,9.414,9.414,0,0,0-13.3,13.33,9.408,9.408,0,0,0,12.528.7l3.873,3.873a1,1,0,0,0,.733.314.95.95,0,0,0,.733-.314,1.086,1.086,0,0,0,.035-1.5Zm-3.908-9.736a7.175,7.175,0,0,1-2.163,5.165,7.381,7.381,0,0,1-5.165,2.164,7.176,7.176,0,0,1-5.165-2.164,7.381,7.381,0,0,1-2.163-5.165,7.175,7.175,0,0,1,2.163-5.165,7.319,7.319,0,0,1,5.165-2.164,7.175,7.175,0,0,1,5.165,2.164A7.319,7.319,0,0,1,268.749,261.421Z" transform="translate(-251.999 -251.999)"/>
</svg>
