<svg xmlns="http://www.w3.org/2000/svg" width="22.712" height="20.473" viewBox="0 0 22.712 20.473">
  <path id="noun-favourite-1712136" d="M231.047,262.48a6.455,6.455,0,0,0-6.417,6.449c0,1.987,1.159,3.749,3.032,5.782s4.5,4.385,7.68,7.578h0a.555.555,0,0,0,.787,0c3.187-3.193,5.82-5.545,7.691-7.578s3.023-3.8,3.023-5.782a6.455,6.455,0,0,0-6.417-6.449,5.769,5.769,0,0,0-4.69,2.8,5.768,5.768,0,0,0-4.69-2.8Zm0,1.11a4.928,4.928,0,0,1,4.213,2.793h0a.555.555,0,0,0,.953,0,4.928,4.928,0,0,1,4.213-2.793,5.336,5.336,0,0,1,5.307,5.34c0,1.551-.924,3.068-2.731,5.032-1.714,1.863-4.275,4.187-7.264,7.156-2.98-2.97-5.545-5.294-7.262-7.158-1.81-1.964-2.737-3.48-2.737-5.03a5.336,5.336,0,0,1,5.307-5.34Z" transform="translate(-224.38 -262.23)" fill="#fff" stroke="#fff" stroke-width="0.5"/>
</svg>
