<svg xmlns="http://www.w3.org/2000/svg" width="20.994" height="20.994" viewBox="0 0 20.994 20.994">
  <path id="noun-user-1155154" d="M235.017,224.52a10.507,10.507,0,1,0,7.42,3.077A10.5,10.5,0,0,0,235.017,224.52Zm0,19.649a9.129,9.129,0,0,1-6.639-2.862,7.986,7.986,0,0,1,13.278,0,9.129,9.129,0,0,1-6.639,2.862Zm-2.875-11.228a2.885,2.885,0,1,1,.839,2.041,2.875,2.875,0,0,1-.839-2.041Zm10.38,7.307a10.205,10.205,0,0,0-5.492-3.59,4.217,4.217,0,1,0-4.026,0,10.205,10.205,0,0,0-5.492,3.59,9.155,9.155,0,1,1,15.012,0Z" transform="translate(-224.52 -224.52)" fill="#fff"/>
</svg>
