<svg xmlns="http://www.w3.org/2000/svg" width="16.86" height="20.473" viewBox="0 0 16.86 20.473">
  <path id="noun-shopping-bag-1829047" d="M172.733,74.155a.541.541,0,0,0-.543-.476h-2.219v-.385a3.691,3.691,0,0,0-7.382,0v.385h-2.219a.558.558,0,0,0-.544.476L158.1,88.964a.523.523,0,0,0,.136.43.567.567,0,0,0,.408.181h15.263a.567.567,0,0,0,.408-.181.581.581,0,0,0,.136-.43Zm-9.013-.861a2.6,2.6,0,0,1,5.208,0v.385h-5.208Zm-4.393,15.195,1.585-13.723h1.721v2.242a.543.543,0,1,0,1.087,0V74.766h5.208v2.242a.543.543,0,1,0,1.087,0V74.766h1.721l1.585,13.723Z" transform="translate(-157.849 -69.353)" fill="#fff" stroke="#fff" stroke-width="0.5"/>
</svg>
